<?xml version="1.0" encoding="UTF-8"?>
<svg width="64px" height="64px" viewBox="0 0 64 64" version="1.1" xmlns="http://www.w3.org/2000/svg" xmlns:xlink="http://www.w3.org/1999/xlink">
    <!-- Generator: Sketch 54.1 (76490) - https://sketchapp.com -->
    <title>korble-1</title>
    <desc>Created with Sketch.</desc>
    <g id="korble-1" stroke="none" stroke-width="1" fill="none" fill-rule="evenodd">
        <g id="8-sided-rock" transform="translate(12.000000, 12.000000)">
            <g id="edges">
                <polygon id="Triangle-5" fill="#F3F3F3" points="12 0 20 20 3.55271368e-15 12"></polygon>
                <polygon id="Triangle-5-Copy-2" fill="#C6C6C6" transform="translate(10.000000, 30.000000) scale(1, -1) translate(-10.000000, -30.000000) " points="12 20 20 40 3.55271368e-15 32"></polygon>
                <polygon id="Triangle-5-Copy" fill="#F3F3F3" transform="translate(30.000000, 10.000000) scale(-1, 1) translate(-30.000000, -10.000000) " points="32 0 40 20 20 12"></polygon>
                <polygon id="Triangle-5-Copy-3" fill="#C6C6C6" transform="translate(30.000000, 30.000000) scale(-1, -1) translate(-30.000000, -30.000000) " points="32 20 40 40 20 32"></polygon>
                <polygon id="Triangle-6" fill="#D9D8D8" points="1.77635684e-15 12 20 20 1.77635684e-15 28"></polygon>
                <polygon id="Triangle-6-Copy" fill="#D9D8D8" transform="translate(30.000000, 20.000000) scale(-1, 1) translate(-30.000000, -20.000000) " points="20 12 40 20 20 28"></polygon>
                <polygon id="Triangle-6-Copy-3" fill="#BDBDBD" points="20 20 28 40 12 40"></polygon>
                <polygon id="Triangle-6-Copy-2" fill="#FAFAFA" points="20 20 28 0 12 3.55271368e-15"></polygon>
            </g>
            <path d="M24.8,32 L15.2,32 L8,24.8 L8,15.2 L15.2,8 L24.8,8 L32,15.2 L32,24.8 L24.8,32 Z" id="front" fill="#E9E9E9"></path>
        </g>
        <g id="eyes" transform="translate(22.000000, 30.000000)" fill="#000000">
            <circle id="Oval-23" cx="1.5" cy="1.5" r="1.5"></circle>
            <circle id="Oval-23-Copy" cx="18.5" cy="1.5" r="1.5"></circle>
        </g>
        <rect id="mouth" fill="#BDBDBD" x="29" y="33" width="6" height="1" rx="0.5"></rect>
        <path d="M50.0857785,31.9987973 C50.0572833,31.9995973 50.0286887,32 50,32 C49.1670117,32 48.4133165,31.6605058 47.8697313,31.1123343 C47.6354903,31.6355091 47.1103109,32 46.5,32 C45.6715729,32 45,31.3284271 45,30.5 C45,30.1239713 45.1383651,29.7802595 45.3669593,29.5170005 C44.7806166,29.1357985 44.3357911,28.5552691 44.1285353,27.8714647 C43.5870611,27.7073481 43.1103439,27.394267 42.7460758,26.9799134 C42.6660111,26.9931268 42.5838082,27 42.5,27 C41.6715729,27 41,26.3284271 41,25.5 C41,24.7895502 41.493914,24.1944601 42.1570982,24.0393738 C42.3716287,23.4042602 42.7930167,22.8644157 43.3411024,22.5 C42.9993199,22.2727529 42.7068061,21.977287 42.4829995,21.6330407 C42.2197405,21.8616349 41.8760287,22 41.5,22 C40.6715729,22 40,21.3284271 40,20.5 C40,20.4010975 40.0095719,20.3044306 40.0278399,20.2108752 C39.4938714,20.7008988 38.7818651,21 38,21 C36.9565146,21 36.0374608,20.4672453 35.5,19.6588976 C34.9625392,20.4672453 34.0434854,21 33,21 C31.3431458,21 30,19.6568542 30,18 C30,17.6097523 30.0745135,17.2369082 30.2100892,16.894919 C29.963695,16.8278453 29.7299193,16.7301552 29.5131015,16.6061882 C29.2462083,16.8507548 28.8905332,17 28.5,17 C27.6715729,17 27,16.3284271 27,15.5 C27,14.84645 27.4179671,14.2905215 28.0011792,14.0849366 C28.0003948,14.0567201 28,14.0284061 28,14 C28,12.3431458 29.3431458,11 31,11 C31.7683544,11 32.4692435,11.2888536 33,11.7638935 C33.5307565,11.2888536 34.2316456,11 35,11 C35.0284061,11 35.0567201,11.0003948 35.0849366,11.0011792 C35.2905215,10.4179671 35.84645,10 36.5,10 C37.2196011,10 37.8208513,10.5067201 37.9663995,11.182809 C38.2886253,11.0645517 38.6367742,11 39,11 C40.6568542,11 42,12.3431458 42,14 C43.0545714,14 43.9820534,14.5441349 44.5170005,15.3669593 C44.7802595,15.1383651 45.1239713,15 45.5,15 C46.3284271,15 47,15.6715729 47,16.5 C47,16.8760287 46.8616349,17.2197405 46.6330407,17.4829995 C47.4558651,18.0179466 48,18.9454286 48,20 C49.3079681,20 50.4204339,20.8370451 50.8309451,22.0046831 C50.8869014,22.0015748 50.9432668,22 51,22 C52.6568542,22 54,23.3431458 54,25 C54,26.0622567 53.4479054,26.9955648 52.6150073,27.5286333 C52.8601388,27.963362 53,28.4653478 53,29 C53,29.8329883 52.6605058,30.5866835 52.1123343,31.1302687 C52.6355091,31.3645097 53,31.8896891 53,32.5 C53,33.3284271 52.3284271,34 51.5,34 C50.6715729,34 50,33.3284271 50,32.5 C50,32.3242328 50.0302315,32.1555265 50.0857785,31.9987973 Z" id="Combined-Shape" fill="#758B5C"></path>
        <path d="M13.9721601,28.2108752 C13.9904281,28.3044306 14,28.4010975 14,28.5 C14,29.3284271 13.3284271,30 12.5,30 C11.6715729,30 11,29.3284271 11,28.5 C11,28.1239713 11.1383651,27.7802595 11.3669593,27.5170005 C10.5441349,26.9820534 10,26.0545714 10,25 C10,24.4589687 10.1432185,23.951388 10.3938118,23.5131015 C10.1492452,23.2462083 10,22.8905332 10,22.5 C10,21.6715729 10.6715729,21 11.5,21 C11.8760287,21 12.2197405,21.1383651 12.4829995,21.3669593 C13.0179466,20.5441349 13.9454286,20 15,20 C15.0284061,20 15.0567201,20.0003948 15.0849366,20.0011792 C15.2905215,19.4179671 15.84645,19 16.5,19 C16.8841772,19 17.2346218,19.1444268 17.5,19.3819467 C17.7653782,19.1444268 18.1158228,19 18.5,19 C19.3284271,19 20,19.6715729 20,20.5 C20,20.8841772 19.8555732,21.2346218 19.6180533,21.5 C19.8555732,21.7653782 20,22.1158228 20,22.5 C20,23.3284271 19.3284271,24 18.5,24 C18.4010975,24 18.3044306,23.9904281 18.2108752,23.9721601 C18.7008988,24.5061286 19,25.2181349 19,26 C19,27.6568542 17.6568542,29 16,29 C15.2181349,29 14.5061286,28.7008988 13.9721601,28.2108752 Z" id="Combined-Shape" fill="#758A5E"></path>
        <path d="M22.9799134,44.7460758 C23.6053101,45.295877 24,46.1018461 24,47 C24.5410313,47 25.048612,47.1432185 25.4868985,47.3938118 C25.7537917,47.1492452 26.1094668,47 26.5,47 C27.1768839,47 27.7490512,47.4483456 27.9357323,48.0642677 C28.5516544,48.2509488 29,48.8231161 29,49.5 C29,49.8841772 28.8555732,50.2346218 28.6180533,50.5 C28.8555732,50.7653782 29,51.1158228 29,51.5 C29,52.3284271 28.3284271,53 27.5,53 C26.8896891,53 26.3645097,52.6355091 26.1302687,52.1123343 C25.5866835,52.6605058 24.8329883,53 24,53 C22.6433061,53 21.4969519,52.0994283 21.1261252,50.8634725 C20.9355705,50.951122 20.7234933,51 20.5,51 C19.6715729,51 19,50.3284271 19,49.5 C19,49.4161918 19.0068732,49.3339889 19.0200866,49.2539242 C18.3946899,48.704123 18,47.8981539 18,47 C16.3431458,47 15,45.6568542 15,44 C15,42.3431458 16.3431458,41 18,41 C19.3566939,41 20.5030481,41.9005717 20.8738748,43.1365275 C21.0644295,43.048878 21.2765067,43 21.5,43 C22.3284271,43 23,43.6715729 23,44.5 C23,44.5838082 22.9931268,44.6660111 22.9799134,44.7460758 Z" id="Combined-Shape" fill="#758A5E"></path>
        <g id="flower" transform="translate(42.797959, 13.797959) rotate(-75.000000) translate(-42.797959, -13.797959) translate(34.797959, 5.797959)">
            <path d="M6.33584588,6.33584589 C6.18421552,6.05693313 6.09740596,5.73293853 6.09740596,5.38731679 C6.09740596,4.34152634 7.87262888,2.54696011 7.87262888,2.54696011 C7.87262888,2.54696011 9.64785181,4.34152634 9.64785181,5.38731679 C9.64785181,5.73293853 9.56104224,6.05693313 9.40941188,6.33584589 C9.68832464,6.18421552 10.0123192,6.09740596 10.357941,6.09740596 C11.4037314,6.09740596 13.1982977,7.87262888 13.1982977,7.87262888 C13.1982977,7.87262888 11.4037314,9.64785181 10.357941,9.64785181 C10.0123192,9.64785181 9.68832464,9.56104224 9.40941188,9.40941188 C9.56104224,9.68832464 9.64785181,10.0123192 9.64785181,10.357941 C9.64785181,11.4037314 7.87262888,13.1982977 7.87262888,13.1982977 C7.87262888,13.1982977 6.09740596,11.4037314 6.09740596,10.357941 C6.09740596,10.0123192 6.18421552,9.68832464 6.33584589,9.40941188 C6.05693313,9.56104224 5.73293853,9.64785181 5.38731679,9.64785181 C4.34152634,9.64785181 2.54696011,7.87262888 2.54696011,7.87262888 C2.54696011,7.87262888 4.34152634,6.09740596 5.38731679,6.09740596 C5.73293853,6.09740596 6.05693313,6.18421552 6.33584588,6.33584588 Z M7.08452689,7.08452689 C7.21022194,7.32198113 7.28088791,7.58956832 7.28088791,7.87262888 C7.28088791,8.15568944 7.21022194,8.42327663 7.08452689,8.66073087 C7.32198113,8.53503583 7.58956832,8.46436986 7.87262888,8.46436986 C8.15568944,8.46436986 8.42327663,8.53503583 8.66073087,8.66073087 C8.53503583,8.42327663 8.46436986,8.15568944 8.46436986,7.87262888 C8.46436986,7.58956832 8.53503583,7.32198113 8.66073087,7.08452689 C8.42327663,7.21022194 8.15568944,7.28088791 7.87262888,7.28088791 C7.58956832,7.28088791 7.32198113,7.21022194 7.08452689,7.08452689 Z" id="Combined-Shape" fill="#FAA5A7"></path>
            <path d="M6.33584589,6.33584589 C6.18421552,6.05693313 6.09740596,5.73293853 6.09740596,5.38731679 C6.09740596,4.34152634 7.87262888,2.54696011 7.87262888,2.54696011 C7.87262888,2.54696011 9.64785181,4.34152634 9.64785181,5.38731679 C9.64785181,5.73293853 9.56104224,6.05693313 9.40941188,6.33584589 C9.68832464,6.18421552 10.0123192,6.09740596 10.357941,6.09740596 C11.4037314,6.09740596 13.1982977,7.87262888 13.1982977,7.87262888 C13.1982977,7.87262888 11.4037314,9.64785181 10.357941,9.64785181 C10.0123192,9.64785181 9.68832464,9.56104224 9.40941188,9.40941188 C9.56104224,9.68832464 9.64785181,10.0123192 9.64785181,10.357941 C9.64785181,11.4037314 7.87262888,13.1982977 7.87262888,13.1982977 C7.87262888,13.1982977 6.09740596,11.4037314 6.09740596,10.357941 C6.09740596,10.0123192 6.18421552,9.68832464 6.33584589,9.40941188 C6.05693313,9.56104224 5.73293853,9.64785181 5.38731679,9.64785181 C4.34152634,9.64785181 2.54696011,7.87262888 2.54696011,7.87262888 C2.54696011,7.87262888 4.34152634,6.09740596 5.38731679,6.09740596 C5.73293853,6.09740596 6.05693313,6.18421552 6.33584588,6.33584588 Z M7.08452689,7.08452689 C7.21022194,7.32198113 7.28088791,7.58956832 7.28088791,7.87262888 C7.28088791,8.15568944 7.21022194,8.42327663 7.08452689,8.66073087 C7.32198113,8.53503583 7.58956832,8.46436986 7.87262888,8.46436986 C8.15568944,8.46436986 8.42327663,8.53503583 8.66073087,8.66073087 C8.53503583,8.42327663 8.46436986,8.15568944 8.46436986,7.87262888 C8.46436986,7.58956832 8.53503583,7.32198113 8.66073087,7.08452689 C8.42327663,7.21022194 8.15568944,7.28088791 7.87262888,7.28088791 C7.58956832,7.28088791 7.32198113,7.21022194 7.08452689,7.08452689 Z" id="Combined-Shape-Copy" fill="#FFC2C2" transform="translate(7.872629, 7.872629) rotate(-315.000000) translate(-7.872629, -7.872629) "></path>
            <circle id="Oval" fill="#FDF7F7" cx="7.87262888" cy="7.87262888" r="1.77522292"></circle>
        </g>
        <path d="M54.3316141,25.0429876 C55.1432858,25.0429876 55.8012757,24.3849977 55.8012757,23.573326 C55.8012757,22.7616542 54.3316141,21.3688335 54.3316141,21.3688335 C54.3316141,21.3688335 52.8619524,22.7616542 52.8619524,23.573326 C52.8619524,24.3849977 53.5199424,25.0429876 54.3316141,25.0429876 Z" id="Oval-25" fill="#A8DB71" transform="translate(54.331614, 23.205911) rotate(59.000000) translate(-54.331614, -23.205911) "></path>
        <path d="M29.7344356,13.5332718 C30.8390051,13.5332718 31.7344356,12.6378413 31.7344356,11.5332718 C31.7344356,10.4287023 29.7344356,8.53327184 29.7344356,8.53327184 C29.7344356,8.53327184 27.7344356,10.4287023 27.7344356,11.5332718 C27.7344356,12.6378413 28.6298661,13.5332718 29.7344356,13.5332718 Z" id="Oval-25-Copy-5" fill="#A8DB71" transform="translate(29.734436, 11.033272) rotate(-20.000000) translate(-29.734436, -11.033272) "></path>
        <path d="M11.1909797,24.5560574 C12.2955492,24.5560574 13.1909797,23.6606269 13.1909797,22.5560574 C13.1909797,21.4514879 11.1909797,19.5560574 11.1909797,19.5560574 C11.1909797,19.5560574 9.19097974,21.4514879 9.19097974,22.5560574 C9.19097974,23.6606269 10.0864102,24.5560574 11.1909797,24.5560574 Z" id="Oval-25-Copy-6" fill="#A8DB71" transform="translate(11.190980, 22.056057) rotate(-56.000000) translate(-11.190980, -22.056057) "></path>
        <path d="M15.4522789,47.6051951 C16.2452851,47.6051951 16.8881436,46.9623365 16.8881436,46.1693303 C16.8881436,45.3763241 15.4522789,44.0155332 15.4522789,44.0155332 C15.4522789,44.0155332 14.0164141,45.3763241 14.0164141,46.1693303 C14.0164141,46.9623365 14.6592726,47.6051951 15.4522789,47.6051951 Z" id="Oval-25-Copy-8" fill="#A8DB71" transform="translate(15.452279, 45.810364) rotate(-126.000000) translate(-15.452279, -45.810364) "></path>
        <path d="M23.4211723,54.7899648 C24.2141785,54.7899648 24.8570371,54.1471063 24.8570371,53.3541001 C24.8570371,52.5610939 23.4211723,51.200303 23.4211723,51.200303 C23.4211723,51.200303 21.9853076,52.5610939 21.9853076,53.3541001 C21.9853076,54.1471063 22.6281661,54.7899648 23.4211723,54.7899648 Z" id="Oval-25-Copy-9" fill="#A8DB71" transform="translate(23.421172, 52.995134) rotate(-166.000000) translate(-23.421172, -52.995134) "></path>
    </g>
</svg>