<?xml version="1.0" encoding="UTF-8"?>
<svg width="64px" height="64px" viewBox="0 0 64 64" version="1.1" xmlns="http://www.w3.org/2000/svg" xmlns:xlink="http://www.w3.org/1999/xlink">
    <!-- Generator: Sketch 54.1 (76490) - https://sketchapp.com -->
    <title>skole-1</title>
    <desc>Created with Sketch.</desc>
    <g id="skole-1" stroke="none" stroke-width="1" fill="none" fill-rule="evenodd">
        <path d="M16,38.5 C16,29.9395864 22.9435234,23 31.5078815,23 L32.4921185,23 C41.056885,23 48,29.9377042 48,38.5 L48,54 L16,54 L16,38.5 Z" id="Rectangle" fill="#C68181"></path>
        <path d="M16,31 C13.790861,31 12,29.209139 12,27 L16,27 L22,27 L22,31 L16,31 Z" id="ear" fill="#C68181"></path>
        <path d="M46,31 C43.790861,31 42,29.209139 42,27 L46,27 L52,27 L52,31 L46,31 Z" id="ear-copy" fill="#C68181" transform="translate(47.000000, 29.000000) scale(-1, 1) translate(-47.000000, -29.000000) "></path>
        <path d="M18,49 L18,37 C18,33.1340068 21.1340068,30 25,30 C28.8659932,30 32,33.1340068 32,37 C32,33.1340068 35.1340068,30 39,30 C42.8659932,30 46,33.1340068 46,37 L46,49 C46,50.1045695 44,51 44,51 C44,51 42,50.1045695 42,49 L42,50 C42,51.1045695 40,52 40,52 C40,52 38,51.1045695 38,50 L38,51 C38,52.1045695 36,53 36,53 C36,53 34,52.1045695 34,51 L34,51 C34,52.1045695 32,53 32,53 C32,53 30,52.1045695 30,51 L30,51 C30,52.1045695 28,53 28,53 C28,53 26,52.1045695 26,51 L26,50 C26,51.1045695 24,52 24,52 C24,52 22,51.1045695 22,50 L22,49 C22,50.1045695 20,51 20,51 C20,51 18,50.1045695 18,49 Z" id="Combined-Shape-Copy-2" fill="#FFE6E6"></path>
        <circle id="Oval" fill="#000000" cx="25" cy="37" r="2"></circle>
        <circle id="Oval-Copy" fill="#000000" cx="39" cy="37" r="2"></circle>
        <path d="M31.9793814,43 C31.9793814,43 33.9587629,40.0725636 33.9587629,38.9793814 C33.9587629,37.8861993 33.0725636,37 31.9793814,37 C30.8861993,37 30,37.8861993 30,38.9793814 C30,40.0725636 31.9793814,43 31.9793814,43 Z" id="Oval-28" fill="#866666"></path>
        <g id="Group-2" transform="translate(34.000000, 8.000000)" fill="#866666">
            <path d="M6,19 L6,13 C6,12.4477153 6.44771525,12 7,12 L19,12 C20.1045695,12 21,11.1045695 21,10 L21,8 C21,7.44771525 20.5522847,7 20,7 C19.4477153,7 19,7.44771525 19,8 L19,9 L19,9.5 L19,9 C19,9.55228475 18.5522847,10 18,10 C17.4477153,10 17,9.55228475 17,9 L17,10 L16,10 L17,10 L17,5.99999983 C17,5.44771525 17.4477153,5 18,5 L19,5 C20.1045695,5 21,4.1045695 21,3 L21,1 C21,0.44771525 20.5522847,0 20,0 C19.4477153,0 19,0.44771525 19,1 L19,2 L19,2.5 L19,2 C19,2.55228475 18.5522847,3 18,3 C17.4477153,3 17,2.55228475 17,2 L17,3.5 L17,3.75 L17,2 C17,0.8954305 16.1045695,0 15,0 L13,0 C12.4477153,0 12,0.44771525 12,1 C12,1.55228475 12.4477153,2 13,2 L14,2 C14.5522847,2 15,2.44771525 15,3 L15,9.00000002 C15,9.55228475 14.5522847,10 14,10 L3,10 C2.44771525,10 2,9.55228475 2,9 L2,8 C2,7.44771525 1.55228475,7 1,7 C0.44771525,7 0,7.44771525 0,8 L0,10 C0,11.1045695 0.8954305,12 2,12 L3,12 C3.55228475,12 4,12.4477153 4,13 L4,19 C4,19.5522847 4.44771525,20 5,20 C5.55228475,20 6,19.5522847 6,19 L6,19 Z" id="Combined-Shape"></path>
            <path d="M3,13 L4,13 L4,11 L2,11 L2,12 C2.55228475,12 3,12.4477153 3,13 L3,13 Z" id="Combined-Shape-Copy-19"></path>
            <path d="M7,14 L9,14 L9,10 L5,10 L5,12 C6.1045695,12 7,12.8954305 7,14 L7,14 Z" id="Combined-Shape-Copy-18" transform="translate(7.000000, 12.000000) scale(-1, 1) translate(-7.000000, -12.000000) "></path>
            <circle id="Oval-5-Copy-7" cx="5" cy="18" r="2"></circle>
            <rect id="Rectangle-16" x="3" y="12" width="4" height="6"></rect>
        </g>
        <g id="Group-2-Copy" transform="translate(19.500000, 18.000000) scale(-1, 1) translate(-19.500000, -18.000000) translate(9.000000, 8.000000)" fill="#866666">
            <path d="M6,19 L6,13 C6,12.4477153 6.44771525,12 7,12 L19,12 C20.1045695,12 21,11.1045695 21,10 L21,8 C21,7.44771525 20.5522847,7 20,7 C19.4477153,7 19,7.44771525 19,8 L19,9 L19,9.5 L19,9 C19,9.55228475 18.5522847,10 18,10 C17.4477153,10 17,9.55228475 17,9 L17,10 L16,10 L17,10 L17,5.99999983 C17,5.44771525 17.4477153,5 18,5 L19,5 C20.1045695,5 21,4.1045695 21,3 L21,1 C21,0.44771525 20.5522847,0 20,0 C19.4477153,0 19,0.44771525 19,1 L19,2 L19,2.5 L19,2 C19,2.55228475 18.5522847,3 18,3 C17.4477153,3 17,2.55228475 17,2 L17,3.5 L17,3.75 L17,2 C17,0.8954305 16.1045695,0 15,0 L13,0 C12.4477153,0 12,0.44771525 12,1 C12,1.55228475 12.4477153,2 13,2 L14,2 C14.5522847,2 15,2.44771525 15,3 L15,9.00000002 C15,9.55228475 14.5522847,10 14,10 L3,10 C2.44771525,10 2,9.55228475 2,9 L2,8 C2,7.44771525 1.55228475,7 1,7 C0.44771525,7 0,7.44771525 0,8 L0,10 C0,11.1045695 0.8954305,12 2,12 L3,12 C3.55228475,12 4,12.4477153 4,13 L4,19 C4,19.5522847 4.44771525,20 5,20 C5.55228475,20 6,19.5522847 6,19 L6,19 Z" id="Combined-Shape"></path>
            <path d="M3,13 L4,13 L4,11 L2,11 L2,12 C2.55228475,12 3,12.4477153 3,13 L3,13 Z" id="Combined-Shape-Copy-19"></path>
            <path d="M7,14 L9,14 L9,10 L5,10 L5,12 C6.1045695,12 7,12.8954305 7,14 L7,14 Z" id="Combined-Shape-Copy-18" transform="translate(7.000000, 12.000000) scale(-1, 1) translate(-7.000000, -12.000000) "></path>
            <circle id="Oval-5-Copy-7" cx="5" cy="18" r="2"></circle>
            <rect id="Rectangle-16" x="3" y="12" width="4" height="6"></rect>
        </g>
        <path d="M28,54 L32,54 C32,55.1045695 30,56 30,56 C30,56 28,55.1045695 28,54 Z M24,54 L28,54 C28,55.1045695 26,56 26,56 C26,56 24,55.1045695 24,54 Z M20,54 L24,54 C24,55.1045695 22,56 22,56 C22,56 20,55.1045695 20,54 Z M44,54 L48,54 C48,55.1045695 46,56 46,56 C46,56 44,55.1045695 44,54 Z M40,54 L44,54 C44,55.1045695 42,56 42,56 C42,56 40,55.1045695 40,54 Z M36,54 L40,54 C40,55.1045695 38,56 38,56 C38,56 36,55.1045695 36,54 Z M32,54 L36,54 C36,55.1045695 34,56 34,56 C34,56 32,55.1045695 32,54 Z M16,54 L20,54 C20,55.1045695 18,56 18,56 C18,56 16,55.1045695 16,54 Z" id="Combined-Shape" fill="#C68181"></path>
    </g>
</svg>